<svg class="typst-doc" viewBox="0 0 355.5455568053993 355.5455568053993" width="355.5455568053993pt" height="355.5455568053993pt" xmlns="http://www.w3.org/2000/svg" xmlns:xlink="http://www.w3.org/1999/xlink" xmlns:h5="http://www.w3.org/1999/xhtml">
    <g>
        <g transform="translate(2.8346456692913384 2.8346456692913384)">
            <g class="typst-group">
                <g>
                    <g transform="translate(38.875140607424065 38.875140607424065)">
                        <path class="typst-shape" fill="none" stroke="#ffffff" stroke-width="15" stroke-linecap="butt" stroke-linejoin="miter" stroke-miterlimit="4" d="M 27.212599 272.12598 C 12.197122 272.12598 0 259.92886 0 244.91339 L 0 27.212599 C 0 12.197122 12.197122 0 27.212599 0 L 244.91339 0 C 259.92886 0 272.12598 12.197122 272.12598 27.212599 L 272.12598 244.91339 C 272.12598 259.92886 259.92886 272.12598 244.91339 272.12598 L 27.212599 272.12598 Z "/>
                    </g>
                    <g transform="translate(272.12598425196853 0)">
                        <path class="typst-shape" fill="none" stroke="#ffffff" stroke-width="15" stroke-linecap="butt" stroke-linejoin="miter" stroke-miterlimit="4" d="M 0 38.87514 L 0 0 "/>
                    </g>
                    <g transform="translate(272.12598425196853 311.0011248593926)">
                        <path class="typst-shape" fill="none" stroke="#ffffff" stroke-width="15" stroke-linecap="butt" stroke-linejoin="miter" stroke-miterlimit="4" d="M 0 0 L 0 38.87514 "/>
                    </g>
                    <g transform="translate(0 272.12598425196853)">
                        <path class="typst-shape" fill="none" stroke="#ffffff" stroke-width="15" stroke-linecap="butt" stroke-linejoin="miter" stroke-miterlimit="4" d="M 38.87514 0 L 0 0 "/>
                    </g>
                    <g transform="translate(311.0011248593926 272.12598425196853)">
                        <path class="typst-shape" fill="none" stroke="#ffffff" stroke-width="15" stroke-linecap="butt" stroke-linejoin="miter" stroke-miterlimit="4" d="M 0 0 L 38.87514 0 "/>
                    </g>
                    <g transform="translate(233.25084364454443 0)">
                        <path class="typst-shape" fill="none" stroke="#ffffff" stroke-width="15" stroke-linecap="butt" stroke-linejoin="miter" stroke-miterlimit="4" d="M 0 38.87514 L 0 0 "/>
                    </g>
                    <g transform="translate(233.25084364454443 311.0011248593926)">
                        <path class="typst-shape" fill="none" stroke="#ffffff" stroke-width="15" stroke-linecap="butt" stroke-linejoin="miter" stroke-miterlimit="4" d="M 0 0 L 0 38.87514 "/>
                    </g>
                    <g transform="translate(0 233.25084364454443)">
                        <path class="typst-shape" fill="none" stroke="#ffffff" stroke-width="15" stroke-linecap="butt" stroke-linejoin="miter" stroke-miterlimit="4" d="M 38.87514 0 L 0 0 "/>
                    </g>
                    <g transform="translate(311.0011248593926 233.25084364454443)">
                        <path class="typst-shape" fill="none" stroke="#ffffff" stroke-width="15" stroke-linecap="butt" stroke-linejoin="miter" stroke-miterlimit="4" d="M 0 0 L 38.87514 0 "/>
                    </g>
                    <g transform="translate(194.37570303712033 0)">
                        <path class="typst-shape" fill="none" stroke="#ffffff" stroke-width="15" stroke-linecap="butt" stroke-linejoin="miter" stroke-miterlimit="4" d="M 0 38.87514 L 0 0 "/>
                    </g>
                    <g transform="translate(194.37570303712033 311.0011248593926)">
                        <path class="typst-shape" fill="none" stroke="#ffffff" stroke-width="15" stroke-linecap="butt" stroke-linejoin="miter" stroke-miterlimit="4" d="M 0 0 L 0 38.87514 "/>
                    </g>
                    <g transform="translate(0 194.37570303712033)">
                        <path class="typst-shape" fill="none" stroke="#ffffff" stroke-width="15" stroke-linecap="butt" stroke-linejoin="miter" stroke-miterlimit="4" d="M 38.87514 0 L 0 0 "/>
                    </g>
                    <g transform="translate(311.0011248593926 194.37570303712033)">
                        <path class="typst-shape" fill="none" stroke="#ffffff" stroke-width="15" stroke-linecap="butt" stroke-linejoin="miter" stroke-miterlimit="4" d="M 0 0 L 38.87514 0 "/>
                    </g>
                    <g transform="translate(155.50056242969626 0)">
                        <path class="typst-shape" fill="none" stroke="#ffffff" stroke-width="15" stroke-linecap="butt" stroke-linejoin="miter" stroke-miterlimit="4" d="M 0 38.87514 L 0 0 "/>
                    </g>
                    <g transform="translate(155.50056242969626 311.0011248593926)">
                        <path class="typst-shape" fill="none" stroke="#ffffff" stroke-width="15" stroke-linecap="butt" stroke-linejoin="miter" stroke-miterlimit="4" d="M 0 0 L 0 38.87514 "/>
                    </g>
                    <g transform="translate(0 155.50056242969626)">
                        <path class="typst-shape" fill="none" stroke="#ffffff" stroke-width="15" stroke-linecap="butt" stroke-linejoin="miter" stroke-miterlimit="4" d="M 38.87514 0 L 0 0 "/>
                    </g>
                    <g transform="translate(311.0011248593926 155.50056242969626)">
                        <path class="typst-shape" fill="none" stroke="#ffffff" stroke-width="15" stroke-linecap="butt" stroke-linejoin="miter" stroke-miterlimit="4" d="M 0 0 L 38.87514 0 "/>
                    </g>
                    <g transform="translate(116.62542182227222 0)">
                        <path class="typst-shape" fill="none" stroke="#ffffff" stroke-width="15" stroke-linecap="butt" stroke-linejoin="miter" stroke-miterlimit="4" d="M 0 38.87514 L 0 0 "/>
                    </g>
                    <g transform="translate(116.62542182227222 311.0011248593926)">
                        <path class="typst-shape" fill="none" stroke="#ffffff" stroke-width="15" stroke-linecap="butt" stroke-linejoin="miter" stroke-miterlimit="4" d="M 0 0 L 0 38.87514 "/>
                    </g>
                    <g transform="translate(0 116.62542182227222)">
                        <path class="typst-shape" fill="none" stroke="#ffffff" stroke-width="15" stroke-linecap="butt" stroke-linejoin="miter" stroke-miterlimit="4" d="M 38.87514 0 L 0 0 "/>
                    </g>
                    <g transform="translate(311.0011248593926 116.62542182227222)">
                        <path class="typst-shape" fill="none" stroke="#ffffff" stroke-width="15" stroke-linecap="butt" stroke-linejoin="miter" stroke-miterlimit="4" d="M 0 0 L 38.87514 0 "/>
                    </g>
                    <g transform="translate(77.75028121484814 0)">
                        <path class="typst-shape" fill="none" stroke="#ffffff" stroke-width="15" stroke-linecap="butt" stroke-linejoin="miter" stroke-miterlimit="4" d="M 0 38.87514 L 0 0 "/>
                    </g>
                    <g transform="translate(77.75028121484814 311.0011248593926)">
                        <path class="typst-shape" fill="none" stroke="#ffffff" stroke-width="15" stroke-linecap="butt" stroke-linejoin="miter" stroke-miterlimit="4" d="M 0 0 L 0 38.87514 "/>
                    </g>
                    <g transform="translate(0 77.75028121484814)">
                        <path class="typst-shape" fill="none" stroke="#ffffff" stroke-width="15" stroke-linecap="butt" stroke-linejoin="miter" stroke-miterlimit="4" d="M 38.87514 0 L 0 0 "/>
                    </g>
                    <g transform="translate(311.0011248593926 77.75028121484814)">
                        <path class="typst-shape" fill="none" stroke="#ffffff" stroke-width="15" stroke-linecap="butt" stroke-linejoin="miter" stroke-miterlimit="4" d="M 0 0 L 38.87514 0 "/>
                    </g>
                    <g transform="translate(47.37907761529807 128.90922347714886)">
                        <path class="typst-shape" fill="#ffffff" fill-rule="nonzero" stroke="#000000" stroke-width="0" stroke-linecap="butt" stroke-linejoin="miter" stroke-miterlimit="4" d="M 0 46.028908 L 7.086614 58.303284 L 35.43307 58.303284 L 21.259842 82.852036 L 35.43307 107.40079 L 97.44095 0.000000000000025176711 L 69.09449 0 L 49.6063 33.75453 L 7.086614 33.75453 L 0 46.028908 Z "/>
                    </g>
                    <g transform="translate(75.72553430821144 64.46875051838542)">
                        <path class="typst-shape" fill="#ffffff" fill-rule="nonzero" stroke="#000000" stroke-width="0" stroke-linecap="butt" stroke-linejoin="miter" stroke-miterlimit="4" d="M 35.43307 0 L 28.346457 12.274376 L 42.519684 36.823128 L 14.173228 36.823128 L 0 61.37188 L 124.01575 61.37188 L 109.84252 36.823128 L 70.86614 36.823128 L 49.6063 0.000000000000025176711 L 35.43307 0 Z "/>
                    </g>
                    <g transform="translate(167.85151856017993 64.46875051838542)">
                        <path class="typst-shape" fill="#ffffff" fill-rule="nonzero" stroke="#000000" stroke-width="0" stroke-linecap="butt" stroke-linejoin="miter" stroke-miterlimit="4" d="M 70.86614 0 L 56.692913 0 L 42.519684 24.548752 L 28.346457 0 L 0 0 L 62.007874 107.40079 L 76.1811 82.852036 L 56.692913 49.097504 L 77.95276 12.274376 L 70.86614 0 Z "/>
                    </g>
                    <g transform="translate(205.05624296962873 113.56625372506225)">
                        <path class="typst-shape" fill="#ffffff" fill-rule="nonzero" stroke="#000000" stroke-width="0" stroke-linecap="butt" stroke-linejoin="miter" stroke-miterlimit="4" d="M 97.44095 61.37188 L 90.35433 49.097504 L 62.007874 49.097504 L 76.1811 24.548752 L 62.007874 0 L 0 107.40079 L 28.346457 107.40079 L 47.834644 73.646255 L 90.35433 73.646255 L 97.44095 61.37188 Z "/>
                    </g>
                    <g transform="translate(150.13498312710914 224.03563594008514)">
                        <path class="typst-shape" fill="#ffffff" fill-rule="nonzero" stroke="#000000" stroke-width="0" stroke-linecap="butt" stroke-linejoin="miter" stroke-miterlimit="4" d="M 88.58268 61.37188 L 95.66929 49.097504 L 81.49606 24.548752 L 109.84252 24.548752 L 124.01575 0 L 0 0 L 14.173228 24.548752 L 53.149605 24.548752 L 74.40945 61.37188 L 88.58268 61.37188 Z "/>
                    </g>
                    <g transform="translate(104.0719910011249 178.0067266838256)">
                        <path class="typst-shape" fill="#ffffff" fill-rule="nonzero" stroke="#000000" stroke-width="0" stroke-linecap="butt" stroke-linejoin="miter" stroke-miterlimit="4" d="M 7.086614 107.40079 L 21.259842 107.40079 L 35.43307 82.852036 L 49.6063 107.40079 L 77.95276 107.40079 L 15.944881 0 L 1.7716535 24.548752 L 21.259842 58.303284 L 0 95.12641 L 7.086614 107.40079 Z "/>
                    </g>
                </g>
            </g>
        </g>
    </g>
</svg>
